<?xml version="1.0" encoding="UTF-8"?>
<svg xmlns="http://www.w3.org/2000/svg" xmlns:xlink="http://www.w3.org/1999/xlink" width="30px" height="30px" viewBox="0 0 30 30" version="1.1">
  <title>canjiahuodong</title>
  <defs>
    <linearGradient x1="100%" y1="50%" x2="0%" y2="50%" id="linearGradient-1">
      <stop stop-color="#F0F6FF" stop-opacity="0" offset="0%"></stop>
      <stop stop-color="#DCE9FF" offset="100%"></stop>
    </linearGradient>
  </defs>
  <g id="页面-1" stroke="none" stroke-width="1" fill="none" fill-rule="evenodd">
    <g id="0-3、首页-服务产品" transform="translate(-1589, -608)">
      <g id="canjiahuodong" transform="translate(1589, 608)">
        <ellipse id="椭圆形备份" fill="url(#linearGradient-1)" cx="15" cy="25" rx="15" ry="5"></ellipse>
        <g id="编组-6备份" transform="translate(2, 0)">
          <g id="位图">
            <rect id="蒙版" x="0" y="0" width="26" height="26"></rect>
            <path d="M19,20 C22.8659932,20 26,16.418278 26,12 C26,7.581722 22.8659932,4 19,4 C15.1340068,4 12,7.581722 12,12 C12,16.418278 15.1340068,20 19,20 Z M18.7943355,20.9966133 L18.7408556,21.0722862 C18.3202484,21.7077046 18.4548925,22.1264342 19.0972305,22.4860189 L19.2236068,22.5527864 C20.9038066,23.3928863 20.9038066,24.8033001 19.3535534,26.3535534 L18.6464466,25.6464466 C19.7182035,24.5746897 19.7610738,23.9884568 18.8900259,23.5068916 L18.7763932,23.4472136 C17.5520192,22.8350266 17.2198556,21.9199947 17.7296189,20.8686918 C18.0770362,20.9413067 18.4322401,20.9846733 18.7943355,20.9966133 Z" id="形状结合" fill="#F6C846"></path>
            <path d="M9,1 C13.9705627,1 18,5.4771525 18,11 C18,16.3150915 14.2680159,20.6616812 9.55678155,20.9811761 C9.63989441,21.1649469 9.81667833,21.3267596 10.0830023,21.4779965 L10.2236068,21.5527864 C11.9038066,22.3928863 11.9038066,23.8033001 10.3535534,25.3535534 L9.64644661,24.6464466 C10.7182035,23.5746897 10.7610738,22.9884568 9.89002586,22.5068916 L9.7763932,22.4472136 C9.01147392,22.064754 8.59478792,21.5640927 8.51407412,20.9858473 C3.7695521,20.7053022 0,16.3417767 0,11 C0,5.4771525 4.02943725,1 9,1 Z" id="路径" fill="#E97F31"></path>
          </g>
          <path d="M6.69046672,3.76258805 L7.56207044,5.56267331 C6.08370709,6.27849885 4.89439744,7.62891391 4.2726055,9.31596687 L2.39600809,8.62431511 C3.19332429,6.46102772 4.73666901,4.70861955 6.69046672,3.76258805 Z" id="路径" fill="#FFFFFF" fill-rule="nonzero"></path>
        </g>
      </g>
    </g>
  </g>
</svg>
