<?xml version="1.0" encoding="UTF-8"?>
<svg xmlns="http://www.w3.org/2000/svg" xmlns:xlink="http://www.w3.org/1999/xlink" width="30px" height="30px" viewBox="0 0 30 30" version="1.1">
  <title>fanuxuqiu</title>
  <defs>
    <linearGradient x1="100%" y1="50%" x2="0%" y2="50%" id="linearGradient-1">
      <stop stop-color="#F0F6FF" stop-opacity="0" offset="0%"></stop>
      <stop stop-color="#DCE9FF" offset="100%"></stop>
    </linearGradient>
  </defs>
  <g id="页面-1" stroke="none" stroke-width="1" fill="none" fill-rule="evenodd">
    <g id="0-3、首页-服务产品" transform="translate(-1465, -608)">
      <g id="fanuxuqiu" transform="translate(1465, 608)">
        <g>
          <ellipse id="椭圆形备份" fill="url(#linearGradient-1)" cx="15" cy="25" rx="15" ry="5"></ellipse>
          <g id="编组-6备份" transform="translate(2, 0)">
            <rect id="矩形" x="0" y="0" width="26" height="26"></rect>
            <path d="M8,2 L24,2 C25.1045695,2 26,2.8954305 26,4 L26,17 C26,18.1045695 25.1045695,19 24,19 L2,19 C0.8954305,19 1.3527075e-16,18.1045695 0,17 L0,10 C-5.41083001e-16,5.581722 3.581722,2 8,2 Z" id="矩形" fill="#6DC7FA"></path>
            <rect id="矩形" fill="#FFFFFF" x="6" y="12" width="8" height="2"></rect>
            <rect id="矩形备份-16" fill="#FFFFFF" x="6" y="7" width="14" height="2"></rect>
          </g>
        </g>
        <path d="M24.5,12 C24.6340627,12 24.7663649,12.0086142 24.896506,12.0253847 C24.9584916,12.0592853 25,12.1247953 25,12.2 L25,22 C25,23.1045695 24.1045695,24 23,24 L21.5,24 C21.2238576,24 21,24.2238576 21,24.5 L21,25.5 C21,25.7761424 20.7761424,26 20.5,26 L9.5,26 C9.22385763,26 9,25.7761424 9,25.5 L9,24.5 C9,24.2238576 8.77614237,24 8.5,24 L7,24 L7,24 C5.8954305,24 5,23.1045695 5,22 L5,19 L21,19 L21,16 C21,13.790861 22.5670034,12 24.5,12 Z" id="路径" fill="#507AF6"></path>
      </g>
    </g>
  </g>
</svg>
