<svg xmlns="http://www.w3.org/2000/svg" viewBox="0 0 167.87 170.65"><defs><style>.cls-1{fill:#ffcd62;}</style></defs><g id="图层_2" data-name="图层 2"><g id="Layer_1" data-name="Layer 1"><path class="cls-1" d="M95.54,37.32c-10.9-2.07-24.77-3.13-35.13.42S43.74,51.1,39.11,60.34c-7.24,14.41-11.81,32.93-4,48.25,11.82,23.24,48,31.55,70.93,21.81,17.37-7.37,27.63-26.88,27.58-45.75a54,54,0,0,0-8.37-29.23c-6.45-9.89-16.83-15.49-28.2-17.8Z"/><path class="cls-1" d="M17.32,93.49a2.5,2.5,0,0,1-2.43-1.93,56.37,56.37,0,0,1,6.36-41.17A56.62,56.62,0,0,1,51.19,26.33a2.5,2.5,0,1,1,1.6,4.73A51.56,51.56,0,0,0,25.54,53a51.34,51.34,0,0,0-5.78,37.47,2.51,2.51,0,0,1-1.87,3A2.76,2.76,0,0,1,17.32,93.49Z"/><path class="cls-1" d="M63.6,146.7a2.48,2.48,0,0,1-.8-.13C54,143.64,44.92,140.08,37.51,134c-8.4-7-13.23-16.56-12.91-25.71a2.5,2.5,0,0,1,5,.18c-.27,7.61,3.88,15.71,11.1,21.67,6.77,5.6,15.39,9,23.69,11.73a2.5,2.5,0,0,1-.79,4.87Z"/><path class="cls-1" d="M102.59,147.1a2.5,2.5,0,0,1-.47-4.95,47.28,47.28,0,0,0,37.94-52.57,2.5,2.5,0,1,1,4.95-.65,52.25,52.25,0,0,1-41.95,58.13A2.49,2.49,0,0,1,102.59,147.1Z"/><path class="cls-1" d="M139.31,67.19a2.5,2.5,0,0,1-2.5-2.46c-.19-12.4-8.11-24.89-20.18-31.82s-26.32-8-37.39-8.21a2.5,2.5,0,0,1,.08-5c11.68.2,26.76,1.38,39.8,8.87,13.57,7.79,22.47,22,22.69,36.09a2.49,2.49,0,0,1-2.46,2.53Z"/><path class="cls-1" d="M155.14,77.33a2.56,2.56,0,0,1-.39,0,2.5,2.5,0,0,1-2.08-2.86A46.94,46.94,0,0,0,128.9,26.1a2.5,2.5,0,1,1,2.41-4.38,51.93,51.93,0,0,1,26.3,53.49A2.51,2.51,0,0,1,155.14,77.33Z"/><path class="cls-1" d="M20.92,34.16a2.5,2.5,0,0,1-1.58-4.44A95.28,95.28,0,0,1,79.77,8.78a2.5,2.5,0,0,1-.07,5A90.2,90.2,0,0,0,22.49,33.6,2.46,2.46,0,0,1,20.92,34.16Z"/><path class="cls-1" d="M116.2,10.38a2.6,2.6,0,0,1-1-.2,69.09,69.09,0,0,0-31.75-5,2.5,2.5,0,1,1-.39-5,74.33,74.33,0,0,1,34.09,5.34,2.5,2.5,0,0,1-1,4.81Z"/><path class="cls-1" d="M163.85,97.73a2.21,2.21,0,0,1-.51,0,2.51,2.51,0,0,1-1.94-3,69.09,69.09,0,0,0-2.14-36.24,2.5,2.5,0,0,1,4.74-1.6,74.28,74.28,0,0,1,2.3,38.86A2.51,2.51,0,0,1,163.85,97.73Z"/><path class="cls-1" d="M13.32,139.74a2.51,2.51,0,0,1-2.19-1.29A89.37,89.37,0,0,1,2.26,75.36,2.5,2.5,0,0,1,7.13,76.5,84.23,84.23,0,0,0,15.5,136a2.51,2.51,0,0,1-2.18,3.72Z"/><path class="cls-1" d="M86.05,163.11a101.28,101.28,0,0,1-25.24-3.18,2.5,2.5,0,0,1,1.25-4.84,97.24,97.24,0,0,0,58.22-3.19,2.5,2.5,0,1,1,1.77,4.67A101.91,101.91,0,0,1,86.05,163.11Z"/><path class="cls-1" d="M142.29,140.12a2.45,2.45,0,0,1-1.78-.74,2.51,2.51,0,0,1,0-3.54,37.36,37.36,0,0,0,10.87-23.32,2.5,2.5,0,0,1,5,.4A42.47,42.47,0,0,1,144,139.41,2.48,2.48,0,0,1,142.29,140.12Z"/><path class="cls-1" d="M51.78,170.65a2.83,2.83,0,0,1-.5-.05,42.51,42.51,0,0,1-24.85-15.39,2.5,2.5,0,0,1,3.95-3.06A37.45,37.45,0,0,0,52.26,165.7a2.5,2.5,0,0,1-.48,5Z"/></g></g></svg>